<?xml version="1.0" encoding="utf-8"?>
<!-- Generator: Adobe Illustrator 19.0.0, SVG Export Plug-In . SVG Version: 6.00 Build 0)  -->
<svg version="1.1" id="Layer_1" xmlns="http://www.w3.org/2000/svg" xmlns:xlink="http://www.w3.org/1999/xlink" x="0px" y="0px"
	 viewBox="0 0 511 519" enable-background="new 0 0 511 519" xml:space="preserve">
<g>
	<path fill="#FFFFFF" d="M4.2,43.7c13.2-13.1,26.6-26.5,40.1-40c70.6,70.7,141.5,141.6,212.2,212.3
		C327.8,144.6,398.7,73.7,469.1,3.3c14.2,14.2,27.6,27.6,40.7,40.7C426,127.8,341.4,212.4,257.1,296.7
		C173.2,212.8,88.7,128.2,4.2,43.7z"/>
	<g>
		<path fill="#FFFFFF" d="M4.2,264.7c13.2-13.1,26.6-26.5,40.1-40c70.6,70.7,141.5,141.6,212.2,212.3
			c71.3-71.3,142.2-142.2,212.6-212.6c14.2,14.2,27.6,27.6,40.7,40.7C426,348.8,341.4,433.4,257.1,517.7
			C173.2,433.8,88.7,349.2,4.2,264.7z"/>
	</g>
</g>
</svg>
