<?xml version="1.0" encoding="utf-8"?>
<!-- Generator: Adobe Illustrator 19.0.0, SVG Export Plug-In . SVG Version: 6.00 Build 0)  -->
<svg version="1.1" id="Layer_1" xmlns="http://www.w3.org/2000/svg" xmlns:xlink="http://www.w3.org/1999/xlink" x="0px" y="0px"
	 viewBox="0 0 511 519" enable-background="new 0 0 511 519" xml:space="preserve">
<g>
	<path fill="#FFFFFF" d="M509.8,477.4c-13.2,13.1-26.6,26.5-40.1,40c-70.6-70.7-141.5-141.6-212.2-212.3
		c-71.3,71.3-142.2,142.2-212.6,212.6C30.7,503.6,17.2,490.1,4.2,477C88,393.2,172.6,308.6,256.9,224.3
		C340.8,308.2,425.3,392.8,509.8,477.4z"/>
	<g>
		<path fill="#FFFFFF" d="M509.8,256.4c-13.2,13.1-26.6,26.5-40.1,40c-70.6-70.7-141.5-141.6-212.2-212.3
			c-71.3,71.3-142.2,142.2-212.6,212.6C30.7,282.6,17.2,269.1,4.2,256C88,172.2,172.6,87.6,256.9,3.3
			C340.8,87.2,425.3,171.8,509.8,256.4z"/>
	</g>
</g>
</svg>
