<?xml version="1.0" encoding="utf-8"?>
<!-- Generator: Adobe Illustrator 19.0.0, SVG Export Plug-In . SVG Version: 6.00 Build 0)  -->
<svg version="1.1" id="Layer_1" xmlns="http://www.w3.org/2000/svg" xmlns:xlink="http://www.w3.org/1999/xlink" x="0px" y="0px"
	 viewBox="0 0 261.6 86" style="enable-background:new 0 0 261.6 86;" xml:space="preserve">
<style type="text/css">
	.st0{fill:#FFFFFF;}
	.st1{fill:#A7A9AC;}
</style>
<g>
	<g id="XMLID_47_">
		<g id="XMLID_67_">
			<path id="XMLID_107_" class="st0" d="M39,86C21.7,75.7,0,60.8,0,34.5V6.8C7.9,3.8,20.2,0,39,0c18.9,0,32,4.1,39,6.8v27.8
				C77.9,61.1,55.4,76.3,39,86z"/>
		</g>
		<g id="XMLID_52_">
			<path id="XMLID_58_" d="M50.7,50c0-0.6,0.5-1.5,0.5-2.3c0-1-1.2-1.3-2.1-1.4c-1.9-0.3-2.6-0.2-2.6-0.6c0-0.3,0.3-0.6,0.6-1.1
				c0.5-0.8,1.8-1,2.4-1.1c0.9-0.1,1.8-0.2,3-0.2c1.3,0,2.4,0.2,2.9,0.3c1.2,0.2,1.4,0.7,1.4,1.3c0,0.1,0,0.4,0,0.6
				c0,0.6-0.5,0.9-1.3,1c-0.2,0-0.5,0.1-0.6,0.1c-0.6,0.1-1.4,0.2-1.6,1c-0.6,1.6-1.6,2.9-2.3,2.9C50.8,50.4,50.7,50.3,50.7,50z
				 M52.4,23.6c-0.1,0-0.3-0.1-0.3-0.4c0-0.3,0.2-0.6,0.6-1.2c1-1.3,2.3-2.9,2.8-2.9c0.2,0,0.4,0.2,0.7,0.7c0.2,0.3,0.3,0.9,0.3,1.4
				c0,1.7-0.6,3-1.5,4.3C54.5,25.2,53.7,24.4,52.4,23.6z M23.8,26.9c0.4,0,0.8-0.3,1.4-1c1.5-1.6,2.9-1.9,2.9-2.6
				c0-0.3-0.2-0.6-0.4-0.9c-1.6-2.5-2.3-3.8-3.2-5.6c-0.3-0.6-0.8-1.1-1.1-1.1c-0.5,0-1.1,0.6-1.5,1.2c-0.5,0.8-0.9,1.6-0.9,2.4
				c0,1.2,0.3,3.4,0.8,4.8C22.3,25.6,23.1,26.9,23.8,26.9z M41.6,32.6c0-1-1.1-2.5-3.1-2.5c-1.8,0-3.1,1.3-3.5,2.4
				c0.4,0.8,0.8,1.7,2.5,2.2c0.2,0.1,0.5,0.1,0.5,0.3c0,0.3-0.3,0.4-0.9,0.4c-1.9,0-3.1-0.8-3.6-1.5c-0.5,0.1-1.1,0.3-1.8,0.3
				c-0.6,0-0.9-0.4-0.9-0.9c0-0.3,0.1-0.7,0.3-1.1c0.1-0.2,0.2-0.5,0.3-0.6c0.3-0.6,0.8-1.9,2.5-2.9c0.2-0.1,0.7-0.4,1-0.6
				c1-0.6,1.8-0.7,2.9-0.7c0.1,0,0.8,0,0.9,0c1.4,0,2.1,0.4,2.8,0.9c1.3,1.1,2,1.7,2,2.5c0,0.9,0,1.6-0.8,2.5
				c-0.6,0.8-1.5,1.3-2.1,1.3c-0.2,0-0.2-0.1-0.2-0.2c0-0.1,0.1-0.2,0.3-0.3C41.2,33.6,41.4,33,41.6,32.6z M50.1,59.9
				c-0.3,0.1-1,0.2-3.9,0.2c-4.4,0-5.2-1.1-5.2-1.9c0-1.4,6.3-2.5,8.8-2.5c2.4,0,3.5,0.8,3.5,1.4C53.3,57.8,52.3,59.4,50.1,59.9z
				 M24.6,72.8c4.6,3.6,9.5,6.8,14.3,9.6l0,0l0,0c0-4.3-0.1-6.9,2.8-10c1.2-1.2,2.4-2.5,3.5-3.7c0.8-0.9,1.5-1.5,1.9-1.5
				c0.3,0,0.4,0.1,0.4,0.5c0,0.4,0.2,1.8,1.1,3.5c1.1,2.1,2.7,2.4,3.2,2.5C64.5,64.5,75,52.1,75,34.5c0-9.7,0-25.7,0-25.7
				c-3.1-1.1-15.8-5.9-36-5.9S6,7.8,3,8.8c0,0,0,16,0,25.7c0,7.7,2,14.5,5.4,20.4c0.3-3.6,2.7-5.3,2.7-8.8c0-2.4-0.7-4-0.7-6
				c0-3.7,5-11.3,7.6-14.4c0.1-0.1,0.2-0.3,0.5-0.3c0.2,0,0.3,0.1,0.4,0.3c0.3,0.4,0.4,0.6,0.7,0.6c0.3,0,0.4-0.2,0.4-0.4
				c0-0.6-0.7-1.7-0.7-5.9c0-2.9,0.7-3.6,2.5-5.4c0.3-0.3,1.4-1.3,2.3-1.3c1.1,0,1.6,0.6,2.3,1.3c1.1,1.1,2.7,3.2,3,3.5
				c0.1,0.1,0.1,0.2,0.3,0.2c0.5,0,1-0.2,3.2-0.2c4.1,0,10.3,0.6,13.5,1.7c1.6,0.5,2,0.9,2.4,0.9c0.2,0,0.2-0.1,0.2-0.3
				c0-0.2-0.4-0.5-0.4-0.8c0-0.2,0.2-0.3,0.3-0.4c2.4-1.3,4.4-2.2,6.3-2.2c1.1,0,1.6,0.9,2.1,1.9c0.4,0.7,0.7,1.7,0.7,2.7
				c0,2.5-1,4.1-1.7,5.1c0.4,0.4,0.9,0.9,1.2,1.3c0.6,0.7,1.2,1.6,1.2,2.5c0,0.4-0.2,1-0.3,1.5c0,0.2-0.2,0.7-0.6,0.7
				c-0.3,0-0.4-0.4-0.4-0.7c0-0.1,0-0.2,0-0.3c0-0.7-0.2-1.7-0.9-2.4c-0.8-0.8-1.5-1.4-2.4-1.4c-0.1,0-0.2,0-0.3,0
				c-1.5,0-2.1,0.6-2.5,1c-0.4,0.4-0.8,1-0.8,1.8c0,0.4,0.3,1,0.7,1.8c0.2,0.5,0.8,1.6,1.2,2.2c0.3,0.5,0.7,0.7,1.1,0.7
				c1,0,1.9-0.1,1.9-0.5c0-0.1,0-0.2-0.2-0.2c-0.1,0-0.2,0-0.3,0c-1.3,0-2.1-1.7-2.7-3.3c0.5-0.5,1.1-1,2.1-1c1.3,0,2.2,0.9,2.2,2.1
				c0,0.6-0.2,1.1-0.3,1.3C56,34,56,34.1,56,34.1c0,0.2,0.2,0.2,0.6,0.3c0.1,0,0.4,0.1,0.5,0.1c0.4,0.1,0.8,0.5,1,0.9
				c0.1,0.3,0.4,1,0.4,1.2c0.2,0.7,0.6,1.6,0.6,2.8c0,1.2-0.1,1.5-0.4,2.7c-0.4,1.5-0.6,2.1-0.7,2.9c0.1,0.3,0.2,0.3,0.2,0.5
				c0.2,0.5,0.5,1.4,0.5,2.3c0,0.3,0,0.8,0,0.8c0,1.5-0.6,2.7-1.3,3.6C57,53,56.3,54,55.9,54.5c-0.3,0.3-0.6,0.6-1.1,0.6
				c-0.2,0-0.4-0.1-0.7-0.1c-0.3-0.1-0.8-0.2-1-0.3c-0.9-0.2-1.2-0.8-1.5-1.6c0-0.1-0.2-0.5-0.2-0.6c-0.2-0.5-0.3-0.9-0.7-0.9
				c-0.3,0-0.5,0.2-0.8,0.5c-0.9,1.3-1.4,1.8-3,2.2c-0.6,0.1-1.7,0.4-2.3,0.5c-0.9,0.2-2.6,0.7-3.6,0.7c-0.2,0-0.4,0-0.6,0
				c-1.3-0.2-2.2-0.3-3.8-2.2c-2.2-2.6-2-3-2.1-6.6c0-0.4-0.1-0.9-0.6-0.9c-0.4,0-0.5,0.8-0.7,1.8c-0.2,1.3-0.5,2.6-1.1,2.6
				c-0.4,0-0.7-0.1-1.4-0.3C30,49.7,28,49,26.9,48.7c-1.4-0.5-2.8-0.9-3.4-2.1c-0.3-0.6-0.7-1.7-1-2.3c-0.2-0.4-0.3-0.6-0.6-0.6
				c-0.4,0-0.5,0.5-0.5,0.8c0,0.4-0.2,1.3-0.2,1.9c-0.2,2.5-0.7,3.6-1.8,4.9c-0.5,0.6-0.9,1.3-1.5,2c-1.1,1.5-1.8,3-1.7,5.8
				c0,0.2,0,1.2,0,1.7C16.4,65.1,17.5,67.2,24.6,72.8z"/>
			<path id="XMLID_53_" class="st1" d="M58.1,35.5L58.1,35.5c0.1,0.3,0.4,1,0.4,1.2c0.2,0.7,0.6,1.6,0.6,2.8c0,1.2-0.1,1.5-0.4,2.7
				c-0.4,1.5-0.6,2.1-0.7,2.9c-0.1-0.2-2.3-4-2.4-4.3c-0.2-0.3-0.3-0.6-0.3-1c0-0.4,0.2-0.6,0.6-0.9c0.3-0.2,0.6-0.4,0.9-0.5
				c1.1-0.6,1.4-1.3,1.4-2C58.2,36.1,58.1,35.8,58.1,35.5z M48.7,41.5c0.1,0.3,0.2,0.6,0.2,0.9c0,0.6-0.1,0.7-0.4,1.1
				c-0.2,0.2-0.4,0.3-0.6,0.5c-0.3,0.2-0.6,0.4-0.8,0.6c-0.4,0.5-0.6,0.8-0.6,1.1c0,0.1,0,0.2,0.1,0.2c-0.4-0.3-0.6-0.8-0.6-1.2
				c0-0.4,0.1-0.6,0.1-1c0-0.3-0.1-0.6-0.1-0.8c-0.6-2-1.6-4.4-2.2-6c-0.6-1.7-1.1-2.6-1.9-2.6c-0.4,0-0.8,0.2-1.2,0.2
				c0.6,0,1.5-0.5,2.1-1.3c0.7-0.9,0.8-1.6,0.8-2.5c0-0.4-0.2-0.7-0.5-1.1c0.9,0.9,1.5,2.1,2.1,3.4C46.5,35.9,47.7,39,48.7,41.5z
				 M16.3,60.9c0-0.5,0-1.5,0-1.7c0-2.8,0.6-4.3,1.7-5.8c0.5-0.7,1-1.4,1.5-2c1.1-1.4,1.6-2.4,1.8-4.9c0.1-0.6,0.2-1.5,0.2-1.9
				c0-0.4,0.1-0.8,0.5-0.8c0.3,0,0.4,0.2,0.6,0.6c0.2,0.6,0.7,1.7,1,2.3c0.6,1.3,1.9,1.7,3.4,2.1c1.1,0.3,3.1,1,3.9,1.3
				c0.7,0.2,1,0.3,1.4,0.3c0.6,0,0.9-1.3,1.1-2.6c0.1-1.1,0.3-1.8,0.7-1.8c0.4,0,0.5,0.5,0.6,0.9c0.1,3.6-0.1,3.9,2.1,6.6
				c1.6,1.9,2.5,2,3.8,2.2c-0.5-0.1-1.1-0.7-1.1-1.9c0-0.2,0-1.1,0-1.3c0-0.6,0.1-1.3,0.4-2c0.1-0.3,0.3-1,0.5-1.4
				c0.3-0.7,0.1-0.8,0.1-1.3c0-0.5-0.2-1-0.5-2.1c-0.2-0.6-0.5-1.5-0.7-2.2c-0.8-2.2-1.1-2.8-3.8-3.1c-0.9-0.1-4.6-0.6-5.4-0.8
				c-3-0.4-5.4-0.6-6.6-2.6c-1.5-2.4-1.3-5.3-2.7-5.3c-0.7,0-1,0.7-1,1.8c0,1.1,0.4,3,0.4,6.2c0,2.8-0.3,3.6-1.9,5.6
				c-0.4,0.5-1,1.3-1.4,1.8c-1.2,1.5-1.7,2.4-1.7,4.1C15.3,55.7,16,59.1,16.3,60.9z M47,71.6c0.1-1.1,0.6-3,0.6-3.7v0
				c0-0.4-0.1-0.5-0.4-0.5c-0.4,0-1.1,0.6-1.9,1.5c-1.1,1.1-2.3,2.4-3.5,3.7c-2.9,3.1-2.8,5.6-2.8,10l0,0c3.3-2,6.2-3.9,8.4-5.4
				C47.1,75.3,46.8,74,47,71.6z"/>
		</g>
	</g>
	<g id="XMLID_1_">
		<path id="XMLID_20_" d="M93.6,22h-2.4v-3.5h11c5.8,0,8.8,3,8.8,7.3c0,5.1-4,7.3-8.8,7.3h-3.6v5.7h2.4v3.5h-9.7v-3.5h2.4V22z
			 M101.7,29.7c2.5,0,4.1-1.4,4.1-3.9c0-2.2-1.4-3.9-4.2-3.9h-3v7.7H101.7z M117.1,34.5c0.1,2.8,2.3,4.6,5.7,4.6
			c2.9,0,4.7-0.8,5.5-1.1v3.7c-0.7,0.3-2.7,1.1-6.6,1.1c-6.9,0-9.8-4.3-9.8-9.2c0-5.6,3.4-9.4,9-9.4c6.1,0,8.6,4.6,8.6,10.4H117.1z
			 M124.3,31.3c0-2.5-1.4-3.9-3.6-3.9c-2.2,0-3.4,1.4-3.6,3.9H124.3z M249.2,34.5c0.1,2.8,2.3,4.6,5.7,4.6c2.9,0,4.7-0.8,5.5-1.1
			v3.7c-0.7,0.3-2.7,1.1-6.6,1.1c-6.9,0-9.8-4.3-9.8-9.2c0-5.6,3.4-9.4,9-9.4c6.1,0,8.6,4.6,8.6,10.4H249.2z M256.4,31.3
			c0-2.5-1.4-3.9-3.6-3.9c-2.2,0-3.4,1.4-3.6,3.9H256.4z M133.9,28h-2.3v-3.5h6.5l0.1,2.3h0.1c0.3-0.5,1.9-2.7,5.5-2.7
			c4.5,0,6.9,3.2,6.9,7.1v7.7h2v3.5H144v-3.5h1.9v-6.8c0-2.5-1.4-3.8-3.6-3.8c-2,0-3.6,1.1-3.6,3.8v6.8h2v3.5h-8.8v-3.5h1.9V28z
			 M157.1,28h-2.3v-3.5h6.5l0.1,2.3h0.1c0.3-0.5,1.9-2.7,5.5-2.7c4.5,0,6.9,3.2,6.9,7.1v7.7h2v3.5h-8.8v-3.5h1.9v-6.8
			c0-2.5-1.4-3.8-3.6-3.8c-2,0-3.6,1.1-3.6,3.8v6.8h2v3.5h-8.8v-3.5h1.9V28z M233.2,20.7h4.8v3.8h4.8V28H238V36
			c0,2.4,0.8,3.1,2.8,3.1c0.7,0,1.8-0.2,2.1-0.3v3.4c-0.4,0.1-2.1,0.6-3.9,0.6c-3.5,0-5.8-1.9-5.8-5V28h-2.4v-3.5h2.4V20.7z
			 M201,20.7h4.8v3.8h4.8V28h-4.8V36c0,2.4,0.8,3.1,2.8,3.1c0.7,0,1.8-0.2,2.1-0.3v3.4c-0.4,0.1-2.1,0.6-3.9,0.6
			c-3.5,0-5.8-1.9-5.8-5V28h-2.4v-3.5h2.4V20.7z M223.7,31c0-2.5-1.2-3.4-3.6-3.4c-1.5,0-2.6,0.4-3,0.5v2.4h-3.9V26
			c0.6-0.4,3.5-1.8,6.8-1.8c5,0,8.2,2,8.2,7c0,2.9,0,7.7,0,7.7h1.8v3.5h-5.8l-0.1-2.4h-0.1c-0.4,0.5-1.7,2.8-5.7,2.8
			c-4,0-6-2.4-6-5.2c0-3.4,2.6-5.7,9.1-5.7c0.3,0,1.8,0,2.1,0V31z M222.3,34.8c-3.9,0-5.1,0.8-5.1,2.4c0,1.1,0.7,2.1,2.6,2.1
			c1.9,0,3.8-1.5,3.8-4.5H222.3z M191.4,22.2c-0.4-0.1-1.8-0.6-3-0.6c-2.8,0-3.9,1.5-3.9,2.8c0,1.7,1.3,2.5,2.8,2.9l2.4,0.6
			c3.3,0.9,7,2.3,7,7.2c0,4.5-2.9,7.6-9.4,7.6c-2.5,0-5.1-0.3-8.1-1.3v-6.3h4.3v3.1c0.7,0.2,2.6,0.7,4.3,0.7c2.5,0,3.8-1.1,3.8-2.9
			c0-1.5-0.8-2.6-3.9-3.4l-2-0.6c-4.7-1.3-6.2-3.5-6.2-7.2c0-3.8,2.5-6.8,8.9-6.8c2.8,0,5.5,0.5,7.4,1.3v5.7h-4.3V22.2z"/>
	</g>
</g>
</svg>
