<?xml version="1.0" encoding="utf-8"?>
<!-- Generator: Adobe Illustrator 19.0.0, SVG Export Plug-In . SVG Version: 6.00 Build 0)  -->
<svg version="1.1" id="Layer_1" xmlns="http://www.w3.org/2000/svg" xmlns:xlink="http://www.w3.org/1999/xlink" x="0px" y="0px"
	 viewBox="-480 346 319 109" style="enable-background:new -480 346 319 109;" xml:space="preserve">
<style type="text/css">
	.st0{fill:#FFFFFF;}
	.st1{fill:#1E407C;}
	.st2{fill:#6DABE4;}
</style>
<g id="XMLID_1_">
	<g id="XMLID_3_">
		<g id="XMLID_432_">
			<g id="XMLID_446_">
				<path id="XMLID_447_" class="st0" d="M-431.3,453.3c-20.8-12.4-47-30.3-47-62.1v-33.5c9.6-3.6,24.4-8.2,47-8.2
					c22.9,0,38.6,4.9,47,8.2v33.5C-384.2,423.2-411.5,441.7-431.3,453.3z"/>
			</g>
			<g id="XMLID_433_">
				<path id="XMLID_439_" class="st1" d="M-417.1,409.9c0-0.7,0.6-1.8,0.6-2.8c0-1.2-1.4-1.5-2.6-1.7c-2.4-0.3-3.1-0.2-3.1-0.7
					c0-0.4,0.3-0.7,0.7-1.3c0.6-0.9,2.1-1.3,2.9-1.4c1.1-0.1,2.2-0.3,3.6-0.3c1.6,0,2.9,0.2,3.5,0.3c1.4,0.3,1.7,0.9,1.7,1.5
					c0,0.1,0,0.5,0,0.7c0,0.7-0.6,1-1.6,1.3c-0.3,0.1-0.6,0.1-0.8,0.2c-0.7,0.2-1.6,0.3-2,1.2c-0.7,2-1.9,3.5-2.8,3.5
					C-417,410.3-417.1,410.2-417.1,409.9z M-415.1,378c-0.1,0-0.4-0.2-0.4-0.5s0.3-0.7,0.8-1.4c1.2-1.6,2.8-3.5,3.4-3.5
					c0.3,0,0.5,0.2,0.8,0.9c0.2,0.4,0.4,1.1,0.4,1.7c0,2.1-0.7,3.6-1.8,5.2C-412.5,380-413.5,378.9-415.1,378z M-449.6,382
					c0.5,0,0.9-0.4,1.7-1.2c1.8-2,3.5-2.2,3.5-3.1c0-0.4-0.2-0.7-0.5-1.1c-1.9-3-2.7-4.6-3.9-6.7c-0.4-0.8-0.9-1.3-1.4-1.3
					c-0.7,0-1.4,0.8-1.8,1.4c-0.6,0.9-1.1,2-1.1,2.9c0,1.4,0.4,4.1,1,5.7C-451.4,380.4-450.4,382-449.6,382z M-428.1,388.8
					c0-1.2-1.4-3-3.8-3c-2.1,0-3.8,1.6-4.2,2.9c0.5,1,1,2,3.1,2.7c0.3,0.1,0.5,0.1,0.5,0.3c0,0.3-0.3,0.5-1.1,0.5
					c-2.3,0-3.7-1-4.3-1.8c-0.6,0.1-1.3,0.3-2.2,0.3c-0.7,0-1-0.5-1-1.1c0-0.4,0.1-0.9,0.4-1.4c0.1-0.3,0.3-0.6,0.4-0.8
					c0.4-0.7,0.9-2.3,3-3.5c0.2-0.1,0.9-0.5,1.2-0.7c1.2-0.7,2.1-0.9,3.5-0.9c0.1,0,0.9,0,1.1,0c1.7,0,2.6,0.5,3.4,1.1
					c1.5,1.3,2.4,2,2.4,3c0,1.1-0.1,1.9-0.9,3c-0.7,1-1.8,1.6-2.5,1.6c-0.2,0-0.3-0.1-0.3-0.2c0-0.1,0.2-0.2,0.3-0.4
					C-428.6,390.1-428.3,389.3-428.1,388.8z M-417.8,421.8c-0.4,0.1-1.2,0.3-4.7,0.3c-5.3,0-6.2-1.3-6.2-2.4c0-1.7,7.7-3,10.7-3
					c2.9,0,4.2,0.9,4.2,1.6C-413.9,419.2-415.2,421.2-417.8,421.8z M-448.6,437.4c5.6,4.3,11.5,8.2,17.3,11.6l0,0l0,0
					c0.1-5.2-0.1-8.3,3.4-12c1.4-1.5,2.9-3,4.2-4.4c1-1,1.8-1.8,2.3-1.8c0.3,0,0.5,0.2,0.5,0.6c0,0.5,0.2,2.2,1.3,4.2
					c1.3,2.6,3.3,2.9,3.9,3c15.2-11.4,27.8-26.4,27.8-47.6c0-11.7,0-31,0-31c-3.6-1.1-19-7-43.4-7c-24.4,0-39.7,5.9-43.5,7.2
					c0,0,0,19.3,0,31c0,9.3,2.5,17.5,6.5,24.6c0.4-4.3,3.3-6.3,3.3-10.6c0-3-0.8-4.8-0.8-7.3c0-4.5,6-13.7,9.2-17.4
					c0.1-0.1,0.3-0.4,0.5-0.4c0.2,0,0.4,0.2,0.5,0.4c0.3,0.5,0.5,0.7,0.8,0.7c0.3,0,0.5-0.2,0.5-0.5c0-0.8-0.9-2.1-0.9-7.2
					c0-3.5,0.8-4.3,3-6.5c0.4-0.4,1.6-1.6,2.8-1.6c1.3,0,2,0.8,2.8,1.6c1.4,1.4,3.3,3.8,3.6,4.2c0.1,0.1,0.2,0.2,0.4,0.2
					c0.6,0,1.2-0.2,3.9-0.2c5,0,12.5,0.8,16.3,2c2,0.6,2.4,1.1,2.9,1.1c0.3,0,0.3-0.2,0.3-0.3c0-0.3-0.5-0.7-0.5-1
					c0-0.2,0.2-0.4,0.4-0.5c2.9-1.5,5.3-2.7,7.6-2.7c1.3,0,2,1.1,2.5,2.3c0.4,0.9,0.9,2,0.9,3.2c0,3-1.2,4.9-2.1,6.2
					c0.4,0.5,1.1,1.1,1.5,1.6c0.7,0.8,1.5,1.9,1.5,3c0,0.5-0.2,1.2-0.4,1.8c-0.1,0.3-0.3,0.8-0.8,0.8c-0.4,0-0.5-0.5-0.5-0.9
					c0-0.1,0-0.3,0-0.3c0-0.9-0.2-2.1-1.1-2.9c-0.9-1-1.8-1.7-2.9-1.7c-0.1,0-0.3,0-0.4,0c-1.8,0-2.6,0.8-3.1,1.3s-0.9,1.2-0.9,2.2
					c0,0.5,0.4,1.2,0.9,2.1c0.3,0.6,1,1.9,1.4,2.6c0.4,0.6,0.8,0.8,1.3,0.8c1.2,0,2.3-0.2,2.3-0.5c0-0.1-0.1-0.2-0.2-0.2
					s-0.2,0-0.4,0c-1.6,0-2.5-2.1-3.3-3.9c0.6-0.6,1.3-1.2,2.6-1.2c1.6,0,2.7,1.1,2.7,2.5c0,0.7-0.2,1.3-0.3,1.5
					c-0.1,0.1-0.1,0.2-0.1,0.3c0,0.2,0.3,0.3,0.7,0.4c0.2,0,0.5,0.1,0.6,0.2c0.5,0.1,1,0.5,1.2,1.1c0.1,0.4,0.5,1.3,0.5,1.5
					c0.3,0.8,0.7,2,0.7,3.3c0,1.4-0.1,1.8-0.5,3.3c-0.5,1.8-0.7,2.5-0.8,3.5c0.2,0.3,0.2,0.4,0.3,0.6c0.3,0.6,0.6,1.7,0.6,2.8
					c0,0.3,0,0.9,0,1c0,1.8-0.7,3.3-1.5,4.4c-0.6,0.8-1.5,2-2,2.7c-0.3,0.4-0.8,0.7-1.3,0.7c-0.2,0-0.5-0.1-0.8-0.1
					c-0.3-0.1-1-0.2-1.3-0.3c-1.1-0.3-1.5-1-1.8-1.9c-0.1-0.1-0.2-0.5-0.3-0.7c-0.3-0.7-0.4-1.1-0.8-1.1c-0.3,0-0.6,0.2-0.9,0.7
					c-1.1,1.6-1.7,2.2-3.6,2.7c-0.7,0.2-2,0.4-2.8,0.6c-1.1,0.3-3.2,0.8-4.3,0.8c-0.2,0-0.5,0-0.8,0c-1.6-0.2-2.7-0.3-4.6-2.6
					c-2.7-3.2-2.4-3.6-2.6-8c0-0.5-0.2-1.1-0.7-1.1c-0.4,0-0.6,0.9-0.8,2.2c-0.2,1.5-0.5,3.1-1.3,3.1c-0.5,0-0.9-0.1-1.7-0.3
					c-1-0.3-3.4-1.1-4.7-1.6c-1.7-0.6-3.4-1-4.1-2.6c-0.3-0.7-0.9-2.1-1.2-2.8c-0.2-0.5-0.4-0.7-0.7-0.7c-0.5,0-0.6,0.5-0.6,1
					c-0.1,0.5-0.2,1.6-0.2,2.3c-0.3,3-0.9,4.3-2.1,6c-0.6,0.8-1.1,1.6-1.8,2.4c-1.3,1.8-2.1,3.6-2.1,7c0,0.2,0,1.5,0,2.1
					C-458.5,428.1-457.2,430.6-448.6,437.4z"/>
				<path id="XMLID_434_" class="st2" d="M-408.2,392.3L-408.2,392.3c0.1,0.4,0.5,1.3,0.5,1.5c0.3,0.8,0.7,2,0.7,3.3
					c0,1.4-0.1,1.8-0.5,3.3c-0.5,1.8-0.7,2.5-0.8,3.5c-0.1-0.3-2.8-4.8-3-5.2c-0.2-0.4-0.4-0.7-0.4-1.1c0-0.5,0.2-0.7,0.8-1.1
					c0.3-0.2,0.8-0.5,1.1-0.6c1.3-0.7,1.7-1.5,1.7-2.5C-408.1,393.1-408.1,392.7-408.2,392.3z M-419.6,399.6
					c0.1,0.4,0.3,0.8,0.3,1.1c0,0.7-0.2,0.9-0.5,1.3c-0.2,0.2-0.5,0.4-0.7,0.6c-0.4,0.2-0.7,0.4-0.9,0.8c-0.4,0.6-0.7,1-0.7,1.3
					c0,0.1,0,0.2,0.1,0.3c-0.5-0.4-0.7-1-0.7-1.5s0.2-0.7,0.2-1.2c0-0.4-0.1-0.7-0.2-1c-0.7-2.4-1.9-5.3-2.7-7.3
					c-0.8-2-1.4-3.1-2.2-3.1c-0.5,0-0.9,0.2-1.4,0.2c0.7,0,1.8-0.6,2.5-1.6c0.9-1.1,0.9-1.9,0.9-3c0-0.5-0.2-0.8-0.5-1.3
					c1.1,1.1,1.8,2.5,2.5,4.1C-422.2,392.8-420.8,396.6-419.6,399.6z M-458.6,423c0-0.6,0-1.9,0-2.1c0-3.4,0.8-5.2,2.1-7
					c0.6-0.9,1.2-1.6,1.8-2.4c1.3-1.7,1.9-3,2.1-6c0.1-0.7,0.2-1.8,0.2-2.3c0.1-0.4,0.2-1,0.6-1c0.3,0,0.5,0.3,0.7,0.7
					c0.3,0.7,0.9,2,1.2,2.8c0.7,1.5,2.3,2,4.1,2.6c1.3,0.4,3.7,1.2,4.7,1.6c0.8,0.3,1.2,0.3,1.7,0.3c0.7,0,1.1-1.6,1.3-3.1
					c0.2-1.3,0.4-2.2,0.8-2.2c0.5,0,0.7,0.6,0.7,1.1c0.2,4.3-0.1,4.8,2.6,8c1.9,2.3,3.1,2.4,4.6,2.6c-0.6-0.2-1.3-0.8-1.3-2.3
					c0-0.3,0-1.4,0-1.6c0-0.8,0.1-1.6,0.5-2.5c0.2-0.4,0.4-1.2,0.6-1.6c0.3-0.8,0.2-1,0.2-1.6s-0.2-1.2-0.7-2.6
					c-0.2-0.7-0.6-1.8-0.9-2.6c-1-2.7-1.4-3.3-4.6-3.8c-1-0.1-5.6-0.8-6.5-0.9c-3.6-0.5-6.5-0.7-8-3.1c-1.8-2.9-1.6-6.5-3.3-6.5
					c-0.8,0-1.2,0.9-1.2,2.2c0,1.4,0.5,3.6,0.5,7.5c0,3.4-0.3,4.3-2.3,6.8c-0.5,0.6-1.2,1.6-1.6,2.1c-1.5,1.8-2.1,2.9-2,5
					C-459.9,416.8-459,420.9-458.6,423z M-421.5,436c0.1-1.4,0.7-3.6,0.7-4.5l0,0c0-0.5-0.2-0.6-0.5-0.6c-0.5,0-1.3,0.8-2.3,1.8
					c-1.3,1.4-2.8,2.9-4.2,4.4c-3.5,3.7-3.4,6.8-3.4,12l0,0c3.9-2.4,7.5-4.7,10.2-6.5C-421.5,440.4-421.8,438.9-421.5,436z"/>
			</g>
		</g>
		<path id="XMLID_4_" class="st0" d="M-365.3,364.4h-2.8v-4.2h13.2c7,0,10.6,3.7,10.6,8.9c0,6.2-4.9,8.8-10.6,8.8h-4.4v6.9h2.8v4.2
			h-11.7v-4.2h2.8v-20.4H-365.3z M-355.5,373.7c3,0,5-1.7,5-4.6c0-2.7-1.7-4.7-5-4.7h-3.7v9.3H-355.5z M-337,379.5
			c0.2,3.4,2.8,5.5,6.8,5.5c3.6,0,5.7-1,6.7-1.4v4.4c-0.9,0.4-3.3,1.4-7.9,1.4c-8.3,0-11.8-5.2-11.8-11.2c0-6.7,4.1-11.4,10.8-11.4
			c7.4,0,10.4,5.6,10.4,12.6h-15V379.5z M-328.3,375.6c0-3-1.7-4.7-4.4-4.7c-2.6,0-4.2,1.7-4.4,4.7
			C-337.1,375.6-328.3,375.6-328.3,375.6z M-177.5,379.5c0.2,3.4,2.8,5.5,6.8,5.5c3.6,0,5.7-1,6.7-1.4v4.4c-0.9,0.4-3.3,1.4-7.9,1.4
			c-8.3,0-11.8-5.2-11.8-11.2c0-6.7,4.1-11.4,10.8-11.4c7.4,0,10.4,5.6,10.4,12.6h-15V379.5z M-168.7,375.6c0-3-1.7-4.7-4.4-4.7
			c-2.6,0-4.2,1.7-4.4,4.7C-177.5,375.6-168.7,375.6-168.7,375.6z M-316.7,371.6h-2.8v-4.2h7.9l0.2,2.8h0.1c0.4-0.6,2.3-3.3,6.6-3.3
			c5.5,0,8.3,3.8,8.3,8.6v9.2h2.5v4.3h-10.6v-4.2h2.3v-8.2c0-3-1.7-4.6-4.4-4.6c-2.5,0-4.4,1.4-4.4,4.6v8.2h2.5v4.2H-319v-4.2h2.3
			V371.6z M-288.6,371.6h-2.8v-4.2h7.9l0.2,2.8h0.1c0.4-0.6,2.3-3.3,6.6-3.3c5.5,0,8.3,3.8,8.3,8.6v9.2h2.5v4.3h-10.6v-4.2h2.3v-8.2
			c0-3-1.7-4.6-4.4-4.6c-2.5,0-4.4,1.4-4.4,4.6v8.2h2.5v4.2H-291v-4.2h2.3v-13.2H-288.6z M-196.7,362.8h5.8v4.6h5.8v4.2h-5.9v9.6
			c0,2.9,1,3.8,3.4,3.8c0.9,0,2.1-0.2,2.6-0.3v4.1c-0.5,0.1-2.6,0.7-4.7,0.7c-4.2,0-7-2.3-7-6.1v-11.8h-2.9v-4.2h2.9V362.8z
			 M-235.6,362.8h5.8v4.6h5.8v4.2h-5.8v9.6c0,2.9,1,3.8,3.4,3.8c0.9,0,2.1-0.2,2.6-0.3v4.1c-0.5,0.1-2.6,0.7-4.7,0.7
			c-4.2,0-7-2.3-7-6.1v-11.8h-2.9v-4.2h2.9L-235.6,362.8L-235.6,362.8z M-208.2,375.3c0-3-1.4-4.1-4.4-4.1c-1.9,0-3.2,0.5-3.6,0.6
			v2.9h-4.7v-5.5c0.8-0.4,4.2-2.2,8.2-2.2c6,0,9.9,2.4,9.9,8.5c0,3.5,0,9.4,0,9.4h2.2v4.1h-7l-0.2-2.9h-0.1c-0.4,0.6-2,3.4-6.9,3.4
			s-7.2-2.9-7.2-6.3c0-4.1,3.1-6.9,11-6.9c0.3,0,2.2,0,2.6,0v-1H-208.2z M-209.9,379.8c-4.7,0-6.2,1-6.2,2.8c0,1.3,0.9,2.6,3.2,2.6
			c2.3,0,4.6-1.8,4.6-5.4C-208.3,379.8-209.9,379.8-209.9,379.8z M-247.2,364.6c-0.4-0.2-2.1-0.7-3.7-0.7c-3.4,0-4.7,1.8-4.7,3.4
			c0,2.1,1.6,3.1,3.4,3.5l2.9,0.7c4,1.1,8.5,2.8,8.5,8.7c0,5.5-3.5,9.2-11.3,9.2c-3,0-6.1-0.3-9.8-1.6v-7.6h5.2v3.8
			c0.8,0.2,3.2,0.8,5.2,0.8c3.1,0,4.5-1.3,4.5-3.5c0-1.8-1-3.1-4.7-4.1l-2.5-0.7c-5.6-1.5-7.5-4.2-7.5-8.7c0-4.6,3-8.2,10.8-8.2
			c3.3,0,6.6,0.6,9,1.5v6.9h-5.2L-247.2,364.6L-247.2,364.6z"/>
	</g>
</g>
</svg>
